HIERARCHY
ROOT Hips
{
	OFFSET 0.000000 0.000000 0.000000
	CHANNELS 6 Xposition Yposition Zposition Zrotation Yrotation Xrotation 
	JOINT LHipJoint
	{
		OFFSET 0.000000 0.000000 0.000000
		CHANNELS 3 Zrotation Yrotation Xrotation
		JOINT LeftUpLeg
		{
			OFFSET 1.363060 -1.794630 0.839290
			CHANNELS 3 Zrotation Yrotation Xrotation
			JOINT LeftLeg
			{
				OFFSET 2.448110 -6.726130 0.000000
				CHANNELS 3 Zrotation Yrotation Xrotation
				JOINT LeftFoot
				{
					OFFSET 2.562200 -7.039590 0.000000
					CHANNELS 3 Zrotation Yrotation Xrotation
					JOINT LeftToeBase
					{
						OFFSET 0.157640 -0.433110 2.322550
						CHANNELS 3 Zrotation Yrotation Xrotation
						End Site
						{
							OFFSET 0.000000 0.000000 0.000000
						}
					}
				}
			}
		}
	}
	JOINT RHipJoint
	{
		OFFSET 0.000000 0.000000 0.000000
		CHANNELS 3 Zrotation Yrotation Xrotation
		JOINT RightUpLeg
		{
			OFFSET -1.305520 -1.794630 0.839290
			CHANNELS 3 Zrotation Yrotation Xrotation
			JOINT RightLeg
			{
				OFFSET -2.542530 -6.985550 0.000000
				CHANNELS 3 Zrotation Yrotation Xrotation
				JOINT RightFoot
				{
					OFFSET -2.568260 -7.056230 0.000000
					CHANNELS 3 Zrotation Yrotation Xrotation
					JOINT RightToeBase
					{
						OFFSET -0.164730 -0.452590 2.363150
						CHANNELS 3 Zrotation Yrotation Xrotation
						End Site
						{
							OFFSET 0.000000 0.000000 0.000000
						}
					}
				}
			}
		}
	}
}
MOTION
Frames: 16
Frame Time: 0.008333
-0.762621 17.110034 0.375099 118.162199 88.497704 116.977554 -10.038788 0.855801 0.305194 -8.372655 7.329653 -27.074723 -0.875848 1.614818 39.878022 3.008154 18.152851 -11.092880 -1.045100 0.000000 -19.878500 9.415323 -1.647059 -0.222790 12.301224 -4.920296 -2.165672 2.189356 -0.334940 17.720648 -2.949964 -9.282798 -21.018777 -177.651001 0.000000 -11.306401
-0.623013 17.111176 0.395122 112.972155 88.589491 111.956013 -9.931594 0.730115 0.429658 -8.702596 7.015983 -27.842917 -0.963728 1.476398 38.232488 2.943762 17.578807 -10.893787 -0.938000 -0.000000 -20.269000 9.414938 -1.698548 -0.204485 12.368314 -4.844005 -1.364514 2.210346 -0.259716 16.875386 -2.954654 -9.252748 -21.050575 -177.648300 0.000000 -11.181200
-0.482371 17.110394 0.415046 107.908712 88.673389 107.052766 -9.830090 0.612250 0.551184 -9.009010 6.730793 -28.556036 -1.057462 1.336472 36.518810 2.860227 16.908789 -10.640876 -0.816000 -0.000000 -20.809300 9.410086 -1.752186 -0.191569 12.447990 -4.786117 -0.533913 2.232717 -0.181861 16.003819 -2.956519 -9.211434 -21.075782 -177.648500 -0.000000 -11.087600
-0.340683 17.107730 0.434926 102.963586 88.748724 102.260517 -9.734416 0.501751 0.667859 -9.300793 6.481020 -29.219605 -1.156636 1.195317 34.749018 2.761563 16.171695 -10.334758 -0.683200 0.000000 -21.449200 9.401652 -1.807608 -0.183794 12.535486 -4.747400 0.325392 2.255669 -0.101097 15.103290 -2.955473 -9.160142 -21.090838 -177.652300 0.000000 -11.009000
-0.198019 17.103079 0.454927 98.148514 88.814039 97.590006 -9.644207 0.398319 0.776889 -9.587712 6.277323 -29.839775 -1.261187 1.053422 32.938091 2.651936 15.395132 -9.982259 -0.544900 -0.000000 -22.150800 9.391119 -1.864197 -0.180918 12.625013 -4.728031 1.213407 2.277878 -0.017381 14.172634 -2.952033 -9.103512 -21.092029 -177.659700 0.000001 -10.910799
-0.054388 17.096397 0.475179 93.522460 88.867938 93.101271 -9.558275 0.302186 0.877153 -9.881184 6.125363 -30.425824 -1.370739 0.911229 31.101804 2.536338 14.609657 -9.590116 -0.405400 0.000000 -22.910700 9.380666 -1.921501 -0.182459 12.710087 -4.732118 2.125151 2.298098 0.069238 13.213812 -2.945976 -9.043063 -21.074734 -177.671300 -0.000000 -10.750000
0.090234 17.087617 0.495729 89.179149 88.909695 88.889705 -9.474630 0.213680 0.968409 -10.192518 6.027994 -30.988637 -1.485328 0.768941 29.256795 2.420020 13.843125 -9.175387 -0.270800 0.000000 -23.675900 9.372978 -1.979158 -0.188011 12.783398 -4.766221 3.051927 2.315253 0.158392 12.232950 -2.936533 -8.977494 -21.035250 -177.688200 -0.000001 -10.478400
0.235983 17.076734 0.516602 85.209332 88.940468 85.049200 -9.391186 0.132926 1.051625 -10.530818 5.984074 -31.540175 -1.604872 0.626446 27.419663 2.307971 13.119367 -8.758935 -0.146000 0.000000 -24.383000 9.370180 -2.037314 -0.196554 12.840247 -4.835608 3.982423 2.328684 0.249489 11.238104 -2.922822 -8.904814 -20.969734 -177.711400 0.000000 -10.052200
0.382784 17.063604 0.537863 81.695858 88.960804 81.660570 -9.305188 0.061157 1.127109 -10.905835 5.994290 -32.085122 -1.729055 0.483627 25.601459 2.203318 12.455461 -8.347223 -0.031400 -0.000000 -25.161700 9.376392 -2.096189 -0.209839 12.870467 -4.956199 4.905906 2.338421 0.340660 10.247574 -2.901845 -8.811619 -20.879215 -177.742600 -0.000000 -9.435100
0.530883 17.048246 0.559288 78.621891 88.974376 78.712959 -9.216023 -0.002893 1.197308 -11.319799 6.052205 -32.635321 -1.857869 0.339555 23.815958 2.109326 11.860879 -7.969455 0.068300 0.000000 -25.854800 9.390765 -2.157018 -0.225395 12.876094 -5.124931 5.809147 2.345011 0.430991 9.271165 -2.873279 -8.696495 -20.762685 -177.782100 -0.000001 -8.612500
0.680307 17.030575 0.580784 75.926228 88.983067 76.145242 -9.123792 -0.059693 1.263369 -11.774912 6.155146 -33.193931 -1.990930 0.193600 22.070775 2.026698 11.336205 -7.634797 0.153400 -0.000000 -26.516700 9.413127 -2.220952 -0.243488 12.855155 -5.346346 6.682081 2.349735 0.518462 8.327325 -2.835377 -8.549142 -20.625122 -177.830400 0.000000 -7.588599
0.831169 17.010573 0.602126 73.479714 88.988061 73.829703 -9.030412 -0.110585 1.326351 -12.270024 6.300732 -33.763481 -2.127951 0.045121 20.372075 1.954855 10.873798 -7.352748 0.223700 0.000000 -27.135800 9.440901 -2.289308 -0.263359 12.809623 -5.617413 7.516158 2.354201 0.601283 7.432301 -2.787494 -8.363255 -20.472843 -177.886800 0.000001 -6.388300
0.983492 16.988208 0.623146 71.108808 88.989076 71.593595 -8.939613 -0.157347 1.386782 -12.802042 6.488162 -34.345056 -2.268392 -0.106119 18.723386 1.891769 10.460301 -7.122602 0.280600 0.000000 -27.739900 9.469633 -2.363206 -0.283730 12.744057 -5.928681 8.306060 2.360182 0.677803 6.601292 -2.730048 -8.135939 -20.315022 -177.949800 -0.000000 -5.056800
1.137323 16.963553 0.643560 68.590985 88.984916 69.216137 -8.857409 -0.202844 1.444337 -13.365108 6.718810 -34.940720 -2.411794 -0.259778 17.130922 1.834313 10.075036 -6.945615 0.324400 -0.000001 -28.285600 9.491760 -2.443375 -0.301875 12.668925 -6.258890 9.050061 2.369308 0.746979 5.844745 -2.665817 -7.874182 -20.163165 -178.016100 0.000000 -3.671800
1.292637 16.936628 0.663379 65.842625 88.968565 66.609487 -8.786111 -0.246247 1.498684 -13.959786 6.992515 -35.539702 -2.557744 -0.415288 15.585856 1.778567 9.703739 -6.792551 0.360900 -0.000000 -28.939299 9.507100 -2.529626 -0.319968 12.575520 -6.613865 9.745472 2.382795 0.806746 5.181005 -2.592364 -7.562929 -20.023827 -178.086700 0.000000 -2.220900
1.449390 16.907623 0.682146 62.574963 88.936078 63.489570 -8.736389 -0.292495 1.547507 -14.575811 7.317125 -36.154376 -2.705778 -0.570161 14.108398 1.720596 9.317441 -6.674065 0.386900 0.000001 -29.504000 9.500853 -2.621033 -0.331377 12.488374 -6.943468 10.398781 2.401249 0.857898 4.607367 -2.518406 -7.235751 -19.911750 -178.154200 -0.000000 -0.847500
